<svg xmlns="http://www.w3.org/2000/svg" viewBox="0 0 32 32" width="32" height="32">
  <defs>
    <linearGradient id="sunGradient" x1="0%" y1="0%" x2="100%" y2="100%">
      <stop offset="0%" style="stop-color:#FFD700;stop-opacity:1" />
      <stop offset="50%" style="stop-color:#FFA500;stop-opacity:1" />
      <stop offset="100%" style="stop-color:#FF6B35;stop-opacity:1" />
    </linearGradient>
    <filter id="glow">
      <feGaussianBlur stdDeviation="0.5" result="coloredBlur"/>
      <feMerge> 
        <feMergeNode in="coloredBlur"/>
        <feMergeNode in="SourceGraphic"/>
      </feMerge>
    </filter>
  </defs>
  
  <!-- Sun rays -->
  <g fill="url(#sunGradient)" filter="url(#glow)">
    <!-- Long rays -->
    <rect x="15.5" y="2" width="1" height="4" rx="0.5"/>
    <rect x="15.5" y="26" width="1" height="4" rx="0.5"/>
    <rect x="2" y="15.5" width="4" height="1" ry="0.5"/>
    <rect x="26" y="15.5" width="4" height="1" ry="0.5"/>
    
    <!-- Diagonal rays -->
    <rect x="6.5" y="6.5" width="1" height="3" rx="0.5" transform="rotate(45 7 8)"/>
    <rect x="24.5" y="6.5" width="1" height="3" rx="0.5" transform="rotate(-45 25 8)"/>
    <rect x="6.5" y="22.5" width="1" height="3" rx="0.5" transform="rotate(-45 7 24)"/>
    <rect x="24.5" y="22.5" width="1" height="3" rx="0.5" transform="rotate(45 25 24)"/>
    
    <!-- Short rays -->
    <rect x="15.5" y="4.5" width="1" height="2" rx="0.5"/>
    <rect x="15.5" y="25.5" width="1" height="2" rx="0.5"/>
    <rect x="4.5" y="15.5" width="2" height="1" ry="0.5"/>
    <rect x="25.5" y="15.5" width="2" height="1" ry="0.5"/>
  </g>
  
  <!-- Sun center -->
  <circle cx="16" cy="16" r="8" fill="url(#sunGradient)" filter="url(#glow)"/>
  <circle cx="16" cy="16" r="6.5" fill="#FFD700" opacity="0.8"/>
  
  <!-- Sun face -->
  <circle cx="13" cy="13" r="1" fill="#FF6B35" opacity="0.6"/>
  <circle cx="19" cy="13" r="1" fill="#FF6B35" opacity="0.6"/>
  <path d="M 13 19 Q 16 21 19 19" stroke="#FF6B35" stroke-width="1" fill="none" opacity="0.7"/>
</svg> 